<?xml version="1.0" standalone="no"?><!DOCTYPE svg PUBLIC "-//W3C//DTD SVG 1.1//EN" "http://www.w3.org/Graphics/SVG/1.1/DTD/svg11.dtd"><svg t="1509206794612" class="icon" style="" viewBox="0 0 1024 1024" version="1.1" xmlns="http://www.w3.org/2000/svg" p-id="1154" xmlns:xlink="http://www.w3.org/1999/xlink" width="200" height="200"><defs><style type="text/css"></style></defs><path d="M661.1953458 363.92619394c0-34.72095937-27.27760606-62.86647656-60.9273914-62.86647655-33.65068447 0-60.93188789 28.14551719-60.93188789 62.86647656 0 34.72095937 27.28120342 62.86557744 60.93188789 62.86557743C633.91773974 426.79177138 661.1953458 398.64715332 661.1953458 363.92619394zM563.70864131 363.92619394c0-20.79570059 16.40038096-37.71772734 36.56021221-37.71772733 20.15623388 0 36.55841309 16.92292588 36.55841309 37.71772734 0 20.80289531-16.40128008 37.71682823-36.55841309 37.71682822C580.10992138 401.64392129 563.70864131 384.72998926 563.70864131 363.92619394zM735.9976294 496.86865947L735.9976294 235.15330185c0-6.86774356-5.47638662-12.43586865-12.23260664-12.43586865L186.58353271 222.7174332c-6.75532002 0-12.23170664 5.5672251-12.23170664 12.43586865l0 450.51984756c0 6.86954268 5.47638662 12.43586865 12.23170664 12.43586866l359.63107031 0c21.41987695 60.12603457 78.83784756 103.17264873 146.31909523 103.17264873 85.76495156 0 155.29231143-69.52915898 155.29231142-155.29321143C847.82511055 575.3116751 800.60622471 515.66951182 735.9976294 496.86865947zM545.15602021 489.99372031l-54.75487588 56.4897999L384.6652332 437.38299072c-4.76137177-4.9106707-12.47544141-4.9106707-17.23501494 1e-8L200.24436992 612.06615547 200.24436992 254.96596865c0-3.46984717 2.72605166-6.2867373 6.09157002-6.2867373l497.51298633 0c3.36551836 0 6.09426826 2.81689013 6.09426826 6.2867373l0 236.70511435c-5.71652403-0.63766758-11.5229874-0.97673818-17.41039541-0.97673818-36.56830693 0-70.17851865 12.64722539-96.7123292 33.79548692l-33.43393213-34.49701143C557.62696513 485.08304961 549.91289463 485.08304961 545.15602021 489.99372031zM692.53279912 775.99621074c-71.80101914 0-130.0077545-58.20763536-130.00775449-130.00685537 0-71.80101914 58.20763536-130.0086545 130.00775449-130.00865449s130.00595625 58.20853448 130.00595625 130.00865449C822.53965449 717.78857539 764.33381739 775.99621074 692.53279912 775.99621074zM710.08709698 568.47810781l-34.56896221 0 0 60.49568409-60.49658321 0 0 34.56806308 60.49658321 0 0 60.49838233 34.5689622-1e-8 0-60.49838232 60.49748233 0 0-34.56806308-60.49748233 0L710.08709698 568.47810781z" fill="#909090" p-id="1155"></path></svg>