<?xml version="1.0" standalone="no"?><!DOCTYPE svg PUBLIC "-//W3C//DTD SVG 1.1//EN" "http://www.w3.org/Graphics/SVG/1.1/DTD/svg11.dtd"><svg t="1509614321087" class="icon" style="" viewBox="0 0 1024 1024" version="1.1" xmlns="http://www.w3.org/2000/svg" p-id="2789" xmlns:xlink="http://www.w3.org/1999/xlink" width="200" height="200"><defs><style type="text/css"></style></defs><path d="M511.99428 0C229.234609 0 0 229.234609 0 511.99428s229.234609 512.00572 511.99428 512.00572 512.00572-229.234609 512.00572-512.00572S794.765391 0 511.99428 0z m0 529.347886C362.629727 529.347886 241.051533 650.903201 241.051533 800.302072a12.800715 12.800715 0 0 1-25.60143 0c0-136.12914 92.178875-250.980953 217.349048-285.722482-78.096945-30.76061-133.601028-106.77558-133.601028-195.67134 0-116.007194 94.375244-210.405318 210.382439-210.405318s210.382439 94.386684 210.382439 210.405318c0 114.794615-92.430542 208.197509-206.767581 210.199408a12.022834 12.022834 0 0 1-1.20114 0.240228z m283.697705 283.697704a12.789276 12.789276 0 0 1-12.800715-12.800715 269.455622 269.455622 0 0 0-104.39618-213.73419 12.800715 12.800715 0 0 1 15.752086-20.179143 294.874021 294.874021 0 0 1 114.302721 233.97053 12.789276 12.789276 0 0 1-12.800715 12.800715z" fill="#BFBFBF" p-id="2790"></path><path d="M509.603441 134.104362c-101.890946 0-184.792448 82.901503-184.792448 184.803888s82.901503 184.792448 184.792448 184.792448S694.37301 420.787756 694.37301 318.896811s-82.890063-184.792448-184.769569-184.792449z" fill="#cecece" p-id="2791"></path></svg>